HIERARCHY
ROOT Hips
{
    OFFSET 0.000000 97.120003 0.000000
    CHANNELS 6 Xposition Yposition Zposition Yrotation Xrotation Zrotation
    JOINT RightUpLeg
    {
        OFFSET -11.000000 -0.000000 0.000000
        CHANNELS 3 Yrotation Xrotation Zrotation
        JOINT RightLeg
        {
            OFFSET 0.000000 -45.062000 0.000000
            CHANNELS 3 Yrotation Xrotation Zrotation
            JOINT RightFoot
            {
                OFFSET 0.000000 -42.057999 0.000000
                CHANNELS 3 Yrotation Xrotation Zrotation
                End Site
                {
                    OFFSET 0.000000 -10.000000 15.120000
                }
            }
        }
    }
    JOINT LeftUpLeg
    {
        OFFSET 11.000000 -0.000000 0.000000
        CHANNELS 3 Yrotation Xrotation Zrotation
        JOINT LeftLeg
        {
            OFFSET 0.000000 -45.062000 0.000000
            CHANNELS 3 Yrotation Xrotation Zrotation
            JOINT LeftFoot
            {
                OFFSET 0.000000 -42.057999 0.000000
                CHANNELS 3 Yrotation Xrotation Zrotation
                End Site
                {
                    OFFSET 0.000000 -10.000000 15.120000
                }
            }
        }
    }
    JOINT Spine
    {
        OFFSET 0.000000 8.120000 0.000000
        CHANNELS 3 Yrotation Xrotation Zrotation
        JOINT Spine1
        {
            OFFSET 0.000000 17.980000 0.000000
            CHANNELS 3 Yrotation Xrotation Zrotation
            JOINT Spine2
            {
                OFFSET 0.000000 12.760000 0.000000
                CHANNELS 3 Yrotation Xrotation Zrotation
                JOINT Neck
                {
                    OFFSET 0.000000 19.139999 0.000000
                    CHANNELS 3 Yrotation Xrotation Zrotation
                    JOINT Neck1
                    {
                        OFFSET 0.000000 4.250000 0.000000
                        CHANNELS 3 Yrotation Xrotation Zrotation
                        JOINT Head
                        {
                            OFFSET 0.000000 4.250000 0.000000
                            CHANNELS 3 Yrotation Xrotation Zrotation
                            End Site
                            {
                                OFFSET 0.000000 19.120001 0.000000
                            }
                        }
                    }
                }
                JOINT RightShoulder
                {
                    OFFSET -2.900000 13.340000 0.000000
                    CHANNELS 3 Yrotation Xrotation Zrotation
                    JOINT RightArm
                    {
                        OFFSET -16.100000 0.000000 0.000000
                        CHANNELS 3 Yrotation Xrotation Zrotation
                        JOINT RightForeArm
                        {
                            OFFSET -28.000000 0.000000 0.000000
                            CHANNELS 3 Yrotation Xrotation Zrotation
                            JOINT RightHand
                            {
                                OFFSET -26.000000 0.000000 0.000000
                                CHANNELS 3 Yrotation Xrotation Zrotation
                                JOINT RightHandThumb1
                                {
                                    OFFSET -1.937000 -0.484000 2.518000
                                    CHANNELS 3 Yrotation Xrotation Zrotation
                                    JOINT RightHandThumb2
                                    {
                                        OFFSET -3.872000 0.000000 0.000000
                                        CHANNELS 3 Yrotation Xrotation Zrotation
                                        JOINT RightHandThumb3
                                        {
                                            OFFSET -2.690000 0.000000 0.000000
                                            CHANNELS 3 Yrotation Xrotation Zrotation
                                            End Site
                                            {
                                                OFFSET -2.537000 0.000000 0.000000
                                            }
                                        }
                                    }
                                }
                                JOINT RightInHandIndex
                                {
                                    OFFSET -3.389000 0.535000 2.080000
                                    CHANNELS 3 Yrotation Xrotation Zrotation
                                    JOINT RightHandIndex1
                                    {
                                        OFFSET -5.485000 -0.096000 1.051000
                                        CHANNELS 3 Yrotation Xrotation Zrotation
                                        JOINT RightHandIndex2
                                        {
                                            OFFSET -3.806000 0.000000 0.000000
                                            CHANNELS 3 Yrotation Xrotation Zrotation
                                            JOINT RightHandIndex3
                                            {
                                                OFFSET -2.158000 0.000000 0.000000
                                                CHANNELS 3 Yrotation Xrotation Zrotation
                                                End Site
                                                {
                                                    OFFSET -1.898000 0.000000 0.000000
                                                }
                                            }
                                        }
                                    }
                                }
                                JOINT RightInHandMiddle
                                {
                                    OFFSET -3.556000 0.544000 0.796000
                                    CHANNELS 3 Yrotation Xrotation Zrotation
                                    JOINT RightHandMiddle1
                                    {
                                        OFFSET -5.441000 -0.088000 0.330000
                                        CHANNELS 3 Yrotation Xrotation Zrotation
                                        JOINT RightHandMiddle2
                                        {
                                            OFFSET -4.153000 0.000000 0.000000
                                            CHANNELS 3 Yrotation Xrotation Zrotation
                                            JOINT RightHandMiddle3
                                            {
                                                OFFSET -2.603000 0.000000 0.000000
                                                CHANNELS 3 Yrotation Xrotation Zrotation
                                                End Site
                                                {
                                                    OFFSET -2.076000 0.000000 0.000000
                                                }
                                            }
                                        }
                                    }
                                }
                                JOINT RightInHandRing
                                {
                                    OFFSET -3.539000 0.566000 -0.136000
                                    CHANNELS 3 Yrotation Xrotation Zrotation
                                    JOINT RightHandRing1
                                    {
                                        OFFSET -4.873000 -0.023000 -0.504000
                                        CHANNELS 3 Yrotation Xrotation Zrotation
                                        JOINT RightHandRing2
                                        {
                                            OFFSET -3.619000 0.000000 0.000000
                                            CHANNELS 3 Yrotation Xrotation Zrotation
                                            JOINT RightHandRing3
                                            {
                                                OFFSET -2.511000 0.000000 0.000000
                                                CHANNELS 3 Yrotation Xrotation Zrotation
                                                End Site
                                                {
                                                    OFFSET -1.952000 0.000000 0.000000
                                                }
                                            }
                                        }
                                    }
                                }
                                JOINT RightInHandPinky
                                {
                                    OFFSET -3.324000 0.494000 -1.264000
                                    CHANNELS 3 Yrotation Xrotation Zrotation
                                    JOINT RightHandPinky1
                                    {
                                        OFFSET -4.354000 -0.023000 -1.147000
                                        CHANNELS 3 Yrotation Xrotation Zrotation
                                        JOINT RightHandPinky2
                                        {
                                            OFFSET -2.898000 0.000000 0.000000
                                            CHANNELS 3 Yrotation Xrotation Zrotation
                                            JOINT RightHandPinky3
                                            {
                                                OFFSET -1.831000 0.000000 0.000000
                                                CHANNELS 3 Yrotation Xrotation Zrotation
                                                End Site
                                                {
                                                    OFFSET -1.730000 0.000000 0.000000
                                                }
                                            }
                                        }
                                    }
                                }
                            }
                        }
                    }
                }
                JOINT LeftShoulder
                {
                    OFFSET 2.900000 13.340000 0.000000
                    CHANNELS 3 Yrotation Xrotation Zrotation
                    JOINT LeftArm
                    {
                        OFFSET 16.100000 0.000000 0.000000
                        CHANNELS 3 Yrotation Xrotation Zrotation
                        JOINT LeftForeArm
                        {
                            OFFSET 28.000000 0.000000 0.000000
                            CHANNELS 3 Yrotation Xrotation Zrotation
                            JOINT LeftHand
                            {
                                OFFSET 26.000000 0.000000 0.000000
                                CHANNELS 3 Yrotation Xrotation Zrotation
                                JOINT LeftHandThumb1
                                {
                                    OFFSET 1.937000 -0.484000 2.518000
                                    CHANNELS 3 Yrotation Xrotation Zrotation
                                    JOINT LeftHandThumb2
                                    {
                                        OFFSET 3.872000 0.000000 0.000000
                                        CHANNELS 3 Yrotation Xrotation Zrotation
                                        JOINT LeftHandThumb3
                                        {
                                            OFFSET 2.690000 0.000000 0.000000
                                            CHANNELS 3 Yrotation Xrotation Zrotation
                                            End Site
                                            {
                                                OFFSET 2.537000 0.000000 0.000000
                                            }
                                        }
                                    }
                                }
                                JOINT LeftInHandIndex
                                {
                                    OFFSET 3.389000 0.535000 2.080000
                                    CHANNELS 3 Yrotation Xrotation Zrotation
                                    JOINT LeftHandIndex1
                                    {
                                        OFFSET 5.485000 -0.096000 1.051000
                                        CHANNELS 3 Yrotation Xrotation Zrotation
                                        JOINT LeftHandIndex2
                                        {
                                            OFFSET 3.806000 0.000000 0.000000
                                            CHANNELS 3 Yrotation Xrotation Zrotation
                                            JOINT LeftHandIndex3
                                            {
                                                OFFSET 2.158000 0.000000 0.000000
                                                CHANNELS 3 Yrotation Xrotation Zrotation
                                                End Site
                                                {
                                                    OFFSET 1.898000 0.000000 0.000000
                                                }
                                            }
                                        }
                                    }
                                }
                                JOINT LeftInHandMiddle
                                {
                                    OFFSET 3.556000 0.544000 0.796000
                                    CHANNELS 3 Yrotation Xrotation Zrotation
                                    JOINT LeftHandMiddle1
                                    {
                                        OFFSET 5.441000 -0.088000 0.330000
                                        CHANNELS 3 Yrotation Xrotation Zrotation
                                        JOINT LeftHandMiddle2
                                        {
                                            OFFSET 4.153000 0.000000 0.000000
                                            CHANNELS 3 Yrotation Xrotation Zrotation
                                            JOINT LeftHandMiddle3
                                            {
                                                OFFSET 2.603000 0.000000 0.000000
                                                CHANNELS 3 Yrotation Xrotation Zrotation
                                                End Site
                                                {
                                                    OFFSET 2.076000 0.000000 0.000000
                                                }
                                            }
                                        }
                                    }
                                }
                                JOINT LeftInHandRing
                                {
                                    OFFSET 3.539000 0.566000 -0.136000
                                    CHANNELS 3 Yrotation Xrotation Zrotation
                                    JOINT LeftHandRing1
                                    {
                                        OFFSET 4.873000 -0.023000 -0.504000
                                        CHANNELS 3 Yrotation Xrotation Zrotation
                                        JOINT LeftHandRing2
                                        {
                                            OFFSET 3.619000 0.000000 0.000000
                                            CHANNELS 3 Yrotation Xrotation Zrotation
                                            JOINT LeftHandRing3
                                            {
                                                OFFSET 2.511000 0.000000 0.000000
                                                CHANNELS 3 Yrotation Xrotation Zrotation
                                                End Site
                                                {
                                                    OFFSET 1.952000 0.000000 0.000000
                                                }
                                            }
                                        }
                                    }
                                }
                                JOINT LeftInHandPinky
                                {
                                    OFFSET 3.324000 0.494000 -1.264000
                                    CHANNELS 3 Yrotation Xrotation Zrotation
                                    JOINT LeftHandPinky1
                                    {
                                        OFFSET 4.354000 -0.023000 -1.147000
                                        CHANNELS 3 Yrotation Xrotation Zrotation
                                        JOINT LeftHandPinky2
                                        {
                                            OFFSET 2.898000 0.000000 0.000000
                                            CHANNELS 3 Yrotation Xrotation Zrotation
                                            JOINT LeftHandPinky3
                                            {
                                                OFFSET 1.831000 0.000000 0.000000
                                                CHANNELS 3 Yrotation Xrotation Zrotation
                                                End Site
                                                {
                                                    OFFSET 1.730000 0.000000 0.000000
                                                }
                                            }
                                        }
                                    }
                                }
                            }
                        }
                    }
                }
            }
        }
    }
}
MOTION
Frames: 4
Frame Time: 0.011111
-173.661743 182.300674 -21.904802 139.813751 -179.628311 179.393997 157.010223 -179.381973 -177.312073 177.712494 169.176865 176.572678 4.907136 -9.283377 -3.922783 154.119888 -162.597244 -173.274933 17.395960 29.558201 0.179878 1.219063 -9.284428 -5.976654 0.492823 5.931824 1.978024 0.294738 5.818512 1.968065 1.029872 4.118064 2.689707 0.000008 4.170817 -1.483953 0.000011 4.866204 -1.536909 7.198011 3.664192 -0.464929 10.636009 0.911245 -0.412129 18.460205 -16.320837 66.094269 175.127335 -176.166336 179.991287 174.897095 174.252914 170.361832 56.617191 42.832470 18.220161 179.999985 179.999985 -171.311035 179.999985 179.999985 -174.213150 180.000000 -180.000000 179.999985 14.999918 -0.000099 32.689754 179.999985 -179.999893 -153.253815 0.000022 -0.000073 18.722300 180.000000 -180.000000 179.999985 179.999786 -179.999771 -147.833771 179.999939 -179.999695 -147.833786 0.000070 -0.000197 21.422705 180.000000 -180.000000 179.999985 169.999847 -179.999832 -150.722733 179.999939 -179.999771 -150.722748 0.000035 -0.000148 19.498693 180.000000 -180.000000 179.999985 159.999939 -179.999954 -162.464951 179.999954 -179.999878 -153.697449 0.000002 -0.000083 17.517504 3.787742 -0.577893 -4.164787 167.891739 -171.752365 101.532578 5.429427 10.105015 2.885778 8.344716 13.860797 5.452935 123.392029 129.322113 159.312881 0.000037 0.000011 -8.084651 0.000022 0.000006 -5.384373 0.000000 -0.000000 0.000000 164.999832 -179.999695 150.275406 179.999756 -179.999847 155.679886 179.999802 -179.999985 162.975937 0.000000 -0.000000 0.000000 179.999771 -179.999496 148.939972 179.999573 -179.999695 148.939987 179.999634 -179.999985 159.314041 0.000000 -0.000000 0.000000 9.999822 -0.000505 -29.237110 179.999588 -179.999649 150.762909 179.999649 -179.999924 160.528091 0.000000 -0.000000 0.000000 19.999895 -0.000365 -21.534243 179.999664 -179.999512 147.698654 179.999634 -179.999847 158.487289
-173.759415 182.317078 -21.998783 140.734238 -179.584991 179.373123 156.571793 -179.765976 -177.364502 177.411057 169.614639 176.779572 4.782385 -9.170450 -4.043944 155.147232 -162.188599 -173.273529 18.962648 30.119448 0.435801 1.869530 -9.533424 -5.464906 0.473498 5.872023 1.910179 0.300496 5.759361 1.967332 1.060316 4.073563 2.689994 179.999969 175.780243 178.782272 179.999969 175.076721 178.738815 7.110765 3.689605 -0.301320 10.679175 0.868081 -0.342402 18.352930 -16.596235 66.116173 174.892410 -175.773712 179.988220 174.802887 174.765350 170.444199 56.470699 42.873554 18.115946 179.999985 179.999985 -171.294479 179.999985 179.999985 -174.202118 0.000000 0.000000 -0.000003 14.999978 -0.000039 32.756718 180.000000 -179.999969 -153.199036 0.000012 -0.000023 18.760649 0.000000 0.000000 -0.000003 179.999878 -179.999832 -147.701202 179.999985 -179.999786 -147.701187 0.000067 -0.000126 21.510998 0.000000 0.000000 -0.000003 169.999908 -179.999863 -150.623779 179.999985 -179.999847 -150.623779 0.000039 -0.000106 19.564547 0.000000 0.000000 -0.000003 160.000015 179.999969 -162.408554 0.000019 0.000059 26.387188 0.000000 0.000045 17.573862 3.849735 -0.527499 -4.108653 167.776443 -172.230942 101.624687 5.787017 10.263452 3.043810 8.522357 13.927405 5.427065 123.194534 129.430176 159.152603 0.000139 0.000047 -8.080551 0.000098 0.000027 -5.381658 180.000000 180.000000 -180.000000 164.999878 -179.999832 150.326462 179.999847 -179.999908 155.721695 179.999893 180.000000 163.005188 180.000000 180.000000 -180.000000 179.999802 -179.999649 149.015030 179.999649 -179.999786 149.015015 179.999725 179.999985 159.364014 180.000000 180.000000 -180.000000 9.999845 -0.000343 -29.161055 179.999695 -179.999756 150.838959 179.999741 -179.999969 160.578766 180.000000 180.000000 -180.000000 19.999863 -0.000376 -21.488094 179.999603 -179.999527 147.767853 179.999619 -179.999863 158.533401
-173.874435 182.330414 -22.073532 141.676590 -179.544983 179.349030 156.105469 179.822845 -177.419266 177.098648 170.075272 176.994385 4.675549 -9.063102 -4.164535 156.184052 -161.802490 -173.321320 20.354248 30.640676 0.692701 2.738012 -9.799096 -4.874853 0.454976 5.805249 1.844155 0.304808 5.693452 1.957581 1.086039 4.025084 2.677674 179.999924 175.740952 179.041061 179.999924 175.030914 179.006821 6.998963 3.706771 -0.144882 10.717978 0.820130 -0.275522 18.483711 -16.780115 66.153374 174.670380 -175.097610 179.994781 174.729340 175.249893 170.485870 56.188541 42.883888 17.942299 179.999985 -179.999985 -171.231186 0.000003 -0.000000 5.840039 180.000000 -180.000000 179.999985 15.000023 0.000032 32.790813 180.000000 179.999969 -153.171188 179.999985 179.999985 -161.219818 180.000000 -180.000000 179.999985 179.999954 -179.999893 -147.599731 0.000008 -0.000117 32.400288 0.000047 -0.000061 21.578575 180.000000 -180.000000 179.999985 169.999954 -179.999893 -150.550217 0.000006 -0.000110 29.449785 0.000038 -0.000064 19.613558 180.000000 -180.000000 179.999985 160.000153 179.999710 -162.368225 0.000087 0.000488 26.447664 179.999908 179.999695 -162.385849 3.905610 -0.476203 -4.041662 167.735443 -172.667191 101.700424 6.131349 10.356601 3.173537 8.686305 14.087514 5.431271 123.060600 129.433533 158.950333 0.000072 0.000017 -8.110304 0.000053 0.000008 -5.401455 0.000000 -0.000000 0.000000 164.999817 -179.999802 150.346985 179.999786 -179.999939 155.738449 179.999847 179.999985 163.016922 0.000000 -0.000000 0.000000 179.999817 -179.999741 149.079285 179.999710 -179.999878 149.079269 179.999771 179.999985 159.406815 0.000000 -0.000000 0.000000 9.999843 -0.000269 -29.095901 179.999725 -179.999847 150.904114 179.999802 -179.999985 160.622131 0.000000 -0.000000 0.000000 19.999907 -0.000202 -21.409016 179.999756 -179.999756 147.886459 179.999786 -179.999969 158.612381
-174.013641 182.342667 -22.127258 142.626678 -179.507965 179.321991 155.889648 179.386612 -177.473877 176.645889 170.564499 177.220139 4.450519 -8.958314 -4.264652 157.559311 -161.447388 -173.416107 21.515959 31.116726 0.925709 3.456115 -10.090481 -4.166892 0.438748 5.733070 1.778991 0.310206 5.622297 1.938360 1.118632 3.973027 2.653402 179.999908 175.712723 179.290039 179.999908 174.998032 179.264694 6.861122 3.714936 0.002710 10.755363 0.768013 -0.212744 18.250166 -16.998112 66.319801 174.587906 -174.747971 -179.985306 174.677780 175.709030 170.493774 55.964066 42.976131 17.767189 180.000000 179.999985 -171.222427 179.999985 -179.999985 -174.154144 180.000000 -180.000000 180.000000 15.000028 0.000066 32.780621 179.999985 179.999954 -153.179489 179.999985 179.999985 -161.225647 180.000000 -180.000000 180.000000 179.999985 -179.999954 -147.539062 0.000012 -0.000056 32.460934 0.000029 -0.000027 21.618973 180.000000 -180.000000 180.000000 169.999969 -179.999893 -150.501587 0.000017 -0.000103 29.498398 0.000046 -0.000055 19.645943 180.000000 -180.000000 180.000000 160.000061 179.999832 -162.535126 0.000010 0.000271 26.197319 179.999939 179.999832 -162.552597 3.952088 -0.426127 -3.963604 167.928848 -173.059433 101.719093 6.418748 10.612202 3.331208 8.846028 14.230373 5.417675 122.944458 129.473953 158.809677 0.000034 0.000009 -8.126237 0.000028 -0.000006 -5.412078 0.000002 -0.000000 0.000002 164.999893 -179.999893 150.403198 179.999878 -179.999985 155.784439 179.999924 179.999985 163.049103 0.000002 -0.000000 0.000002 179.999847 -179.999817 149.143433 179.999756 -179.999924 149.143433 179.999847 179.999954 159.449524 0.000002 -0.000000 0.000002 9.999855 -0.000201 -29.031944 179.999786 -179.999908 150.968063 179.999832 179.999985 160.664719 0.000002 -0.000000 0.000002 19.999920 -0.000126 -21.358152 179.999832 -179.999847 147.962769 179.999847 -179.999985 158.663223
